<svg height="512" viewBox="0 0 56 60" width="512" xmlns="http://www.w3.org/2000/svg"><g id="Page-1" fill="none" fill-rule="evenodd"><g id="055---Pipe" fill="rgb(0,0,0)" fill-rule="nonzero"><path id="Shape" d="m54 52v-14c-.0115735-10.4886126-8.5113874-18.9884265-19-19h-10c-.5522847 0-1-.4477153-1-1v-10c1.1045695 0 2-.8954305 2-2v-4c0-1.1045695-.8954305-2-2-2h-22c-1.1045695 0-2 .8954305-2 2v4c0 1.1045695.8954305 2 2 2v14c.0115735 10.4886126 8.5113874 18.9884265 19 19h10c.5522847 0 1 .4477153 1 1v10c-1.1045695 0-2 .8954305-2 2v4c0 1.1045695.8954305 2 2 2h22c1.1045695 0 2-.8954305 2-2v-4c0-1.1045695-.8954305-2-2-2zm-52-50h22v4h-22zm29 37h-10c-9.3845001-.010471-16.98952899-7.6154999-17-17v-14h18v10c0 1.6568542 1.3431458 3 3 3h10c9.3845001.010471 16.989529 7.6154999 17 17v14h-18v-10c0-1.6568542-1.3431458-3-3-3zm1 19v-4h22v4z"/><path id="Shape" d="m37 44h12c.5522847 0 1-.4477153 1-1s-.4477153-1-1-1h-12c-.5522847 0-1 .4477153-1 1s.4477153 1 1 1z"/><path id="Shape" d="m19 16h-12c-.55228475 0-1 .4477153-1 1s.44771525 1 1 1h12c.5522847 0 1-.4477153 1-1s-.4477153-1-1-1z"/><path id="Shape" d="m28 23c-.5522847 0-1 .4477153-1 1v12c0 .5522847.4477153 1 1 1s1-.4477153 1-1v-12c0-.5522847-.4477153-1-1-1z"/></g></g></svg>