<svg height="512" viewBox="0 0 60 60" width="512" xmlns="http://www.w3.org/2000/svg"><g id="Page-1" fill="none" fill-rule="evenodd"><g id="007---Pipe" fill="rgb(0,0,0)" fill-rule="nonzero"><path id="Shape" d="m58 54.184v-34.184c-.0000001-9.9411254-8.0588746-17.99999973-18-17.99999973s-17.9999999 8.05887433-18 17.99999973v2.184c-1.1943509.4222546-1.9947486 1.5492146-2 2.816v10c.0052514 1.2667854.8056491 2.3937454 2 2.816v2.184c0 1.1045695-.8954305 2-2 2s-2-.8954305-2-2v-34.184c1.3765475-.48485233 2.2026937-1.89184415 1.9553873-3.33017801-.2473064-1.43833387-1.49595-2.48858739-2.9553873-2.48582199h-14c-1.45943726-.0027654-2.70808095 1.04748812-2.95538732 2.48582199-.24730638 1.43833386.57883984 2.84532568 1.95538732 3.33017801v34.184c0 9.9411255 8.0588745 18 18 18s18-8.0588745 18-18v-2.184c1.1943509-.4222546 1.9947486-1.5492146 2-2.816v-10c-.0052514-1.2667854-.8056491-2.3937454-2-2.816v-2.184c0-1.1045695.8954305-2 2-2s2 .8954305 2 2v34.184c-1.3765475.4848523-2.2026937 1.8918441-1.9553873 3.330178s1.49595 2.4885874 2.9553873 2.485822h14c1.4594373.0027654 2.7080809-1.0474881 2.9553873-2.485822s-.5788398-2.8453257-1.9553873-3.330178zm-55-52.184h14c.5522847 0 1 .44771525 1 1s-.4477153 1-1 1h-14c-.55228475 0-1-.44771525-1-1s.44771525-1 1-1zm17 54c-8.8322157-.0104696-15.98953038-7.1677843-16-16v-34h12v34c0 2.209139 1.790861 4 4 4s4-1.790861 4-4v-2h12v2c-.0104696 8.8322157-7.1677843 15.9895304-16 16zm18-21c0 .5522847-.4477153 1-1 1h-14c-.5522847 0-1-.4477153-1-1v-10c0-.5522847.4477153-1 1-1h14c.5522847 0 1 .4477153 1 1zm2-19c-2.209139 0-4 1.790861-4 4v2h-12v-2c0-8.836556 7.163444-16 16-16s16 7.163444 16 16v34h-12v-34c0-2.209139-1.790861-4-4-4zm17 42h-14c-.5522847 0-1-.4477153-1-1s.4477153-1 1-1h14c.5522847 0 1 .4477153 1 1s-.4477153 1-1 1z"/><path id="Shape" d="m7 8c-.55228475 0-1 .44771525-1 1v2c0 .5522847.44771525 1 1 1s1-.4477153 1-1v-2c0-.55228475-.44771525-1-1-1z"/><path id="Shape" d="m7 14c-.55228475 0-1 .4477153-1 1v14c0 .5522847.44771525 1 1 1s1-.4477153 1-1v-14c0-.5522847-.44771525-1-1-1z"/></g></g></svg>