<?xml version="1.0" encoding="iso-8859-1"?>
<!-- Generator: Adobe Illustrator 19.0.0, SVG Export Plug-In . SVG Version: 6.00 Build 0)  -->
<svg version="1.1" id="Capa_1" xmlns="http://www.w3.org/2000/svg" xmlns:xlink="http://www.w3.org/1999/xlink" x="0px" y="0px"
	 viewBox="0 0 512 512" style="enable-background:new 0 0 512 512;" xml:space="preserve">
<g>
	<g>
		<g>
			<path d="M486.4,0H25.6C11.468,0.015,0.015,11.468,0,25.6v460.8c0.015,14.132,11.468,25.585,25.6,25.6h460.8
				c14.132-0.015,25.585-11.468,25.6-25.6V25.6C511.985,11.468,500.532,0.015,486.4,0z M494.933,486.4
				c-0.005,4.711-3.822,8.529-8.533,8.533H25.6c-4.711-0.005-8.529-3.822-8.533-8.533V25.6c0.005-4.711,3.822-8.529,8.533-8.533
				h460.8c4.711,0.005,8.529,3.822,8.533,8.533V486.4z"/>
			<path d="M469.333,375.467c-2.263-0.001-4.434,0.898-6.035,2.499c-1.6,1.6-2.499,3.771-2.499,6.035v68.267
				c-0.005,4.711-3.823,8.529-8.533,8.533H384c-4.713,0-8.533,3.82-8.533,8.533s3.82,8.533,8.533,8.533h68.267
				c14.132-0.015,25.585-11.468,25.6-25.6V384c0.001-2.263-0.898-4.434-2.499-6.035
				C473.768,376.365,471.597,375.466,469.333,375.467z"/>
			<path d="M128,460.8H59.733c-4.711-0.005-8.529-3.823-8.533-8.533V384c0-4.713-3.82-8.533-8.533-8.533s-8.533,3.82-8.533,8.533
				v68.267c0.015,14.132,11.468,25.585,25.6,25.6H128c4.713,0,8.533-3.82,8.533-8.533S132.713,460.8,128,460.8z"/>
			<path d="M452.267,34.133H384c-4.713,0-8.533,3.82-8.533,8.533S379.287,51.2,384,51.2h68.267c4.711,0.005,8.529,3.822,8.533,8.533
				V128c0,4.713,3.82,8.533,8.533,8.533s8.533-3.82,8.533-8.533V59.733C477.851,45.601,466.399,34.149,452.267,34.133z"/>
			<path d="M42.667,136.533c2.263,0.001,4.434-0.898,6.035-2.499c1.6-1.6,2.499-3.771,2.499-6.035V59.733
				c0.005-4.711,3.822-8.529,8.533-8.533H128c4.713,0,8.533-3.82,8.533-8.533s-3.82-8.533-8.533-8.533H59.733
				c-14.132,0.015-25.585,11.468-25.6,25.6V128c-0.001,2.263,0.898,4.434,2.499,6.035C38.232,135.635,40.403,136.534,42.667,136.533
				z"/>
			<path d="M256,34.133C133.466,34.133,34.133,133.466,34.133,256S133.466,477.867,256,477.867S477.867,378.534,477.867,256
				C477.73,133.523,378.477,34.27,256,34.133z M296.706,55.276C291.204,73.143,274.695,85.333,256,85.333
				c-18.695,0-35.204-12.191-40.706-30.058C242.159,49.841,269.841,49.841,296.706,55.276z M215.294,456.724
				c5.502-17.867,22.011-30.058,40.706-30.058s35.204,12.191,40.706,30.058C269.841,462.159,242.159,462.159,215.294,456.724z
				 M313.264,452.593C305.862,427.121,282.525,409.6,256,409.6s-49.862,17.521-57.264,42.993
				C111.318,427.152,51.201,347.044,51.201,256S111.318,84.848,198.736,59.407C206.138,84.879,229.475,102.4,256,102.4
				s49.862-17.521,57.264-42.993C400.682,84.848,460.799,164.956,460.799,256S400.682,427.152,313.264,452.593z"/>
			<path d="M395.636,130.705c-0.451-0.424-0.948-0.796-1.481-1.111c-0.688-0.67-1.589-1.081-2.546-1.161
				c-0.622-0.203-1.265-0.333-1.916-0.386c-0.081-0.002-0.148-0.046-0.23-0.046H273.067c-2.263-0.001-4.434,0.898-6.035,2.499
				c-1.6,1.6-2.499,3.771-2.499,6.035v34.133c-0.001,2.263,0.898,4.434,2.499,6.035c1.6,1.6,3.771,2.499,6.035,2.499h140.459
				l0.003,0l0.005,0c1.004-0.023,1.997-0.224,2.931-0.593c0.219-0.081,0.429-0.153,0.64-0.251c0.166-0.077,0.341-0.108,0.504-0.197
				c0.305-0.221,0.594-0.463,0.865-0.724c0.494-0.331,0.95-0.714,1.363-1.142c0.653-0.858,1.206-1.787,1.647-2.771
				c0.179-0.567,0.297-1.151,0.352-1.743c0.101-0.365,0.176-0.736,0.224-1.111c0-0.143-0.074-0.261-0.081-0.403
				c-0.168-1.123-0.45-2.226-0.841-3.293c-0.061-0.125-0.052-0.264-0.12-0.388c-6.998-12.837-15.45-24.827-25.188-35.733
				C395.773,130.788,395.693,130.766,395.636,130.705z M281.6,162.133v-17.067h103.897c4.632,5.42,8.927,11.12,12.86,17.067H281.6z"
				/>
			<path d="M238.933,128H122.537c-0.081,0-0.149,0.044-0.23,0.046c-0.65,0.054-1.292,0.184-1.912,0.385
				c-0.45,0.077-0.893,0.189-1.326,0.336c-0.934,0.599-1.838,1.246-2.706,1.937c-0.057,0.061-0.137,0.082-0.193,0.145
				c-9.738,10.906-18.189,22.896-25.188,35.733c-0.068,0.124-0.059,0.262-0.119,0.388c-0.391,1.066-0.672,2.17-0.841,3.293
				c-0.007,0.141-0.081,0.26-0.081,0.403c0.049,0.375,0.124,0.746,0.224,1.111c0.055,0.592,0.173,1.176,0.352,1.743
				c0.441,0.983,0.994,1.913,1.647,2.771c0.412,0.428,0.869,0.811,1.363,1.142c0.271,0.261,0.56,0.503,0.865,0.724
				c0.163,0.089,0.339,0.12,0.504,0.197c0.21,0.098,0.42,0.17,0.64,0.251c0.934,0.369,1.926,0.57,2.93,0.593l0.005,0l0.003,0
				h140.459c2.263,0.001,4.434-0.898,6.035-2.499c1.6-1.6,2.499-3.771,2.499-6.035v-34.133c0.001-2.263-0.898-4.434-2.499-6.035
				C243.368,128.898,241.197,127.999,238.933,128z M230.4,162.133H113.643c3.933-5.947,8.228-11.647,12.86-17.067H230.4V162.133z"/>
			<path d="M238.933,196.267H84.308c-0.152,0-0.279,0.079-0.429,0.086c-0.593,0.054-1.179,0.172-1.746,0.352
				c-2.107,0.4-3.918,1.738-4.92,3.634c-0.344,0.497-0.632,1.03-0.858,1.591c-0.051,0.142-0.164,0.241-0.208,0.386
				c-3.526,11.674-5.867,23.673-6.987,35.817c-0.013,0.14,0.049,0.264,0.043,0.403s-0.08,0.256-0.08,0.397
				c0.051,0.43,0.137,0.854,0.256,1.27c0.055,0.564,0.168,1.12,0.335,1.661c0.213,0.504,0.476,0.986,0.785,1.438
				c0.478,0.987,1.235,1.813,2.177,2.375c0.405,0.334,0.842,0.629,1.304,0.879c0.54,0.227,1.102,0.396,1.677,0.506
				c0.39,0.152,0.791,0.273,1.199,0.362c0.265,0.03,0.531,0.044,0.797,0.041l0.003,0h161.279c2.263,0.001,4.434-0.898,6.035-2.499
				c1.6-1.6,2.499-3.771,2.499-6.035V204.8c0.001-2.263-0.898-4.434-2.499-6.035C243.368,197.165,241.197,196.266,238.933,196.267z
				 M230.4,230.4H87.491c0.856-5.747,2.017-11.444,3.479-17.067H230.4V230.4z"/>
			<path d="M267.032,198.765c-1.6,1.6-2.499,3.771-2.499,6.035v34.133c-0.001,2.263,0.898,4.434,2.499,6.035
				c1.6,1.6,3.771,2.499,6.035,2.499h161.279l0.003,0c0.266,0.003,0.533-0.011,0.797-0.041c0.409-0.089,0.81-0.21,1.199-0.362
				c0.575-0.11,1.137-0.279,1.677-0.506c0.462-0.25,0.899-0.545,1.304-0.879c0.942-0.563,1.698-1.388,2.177-2.375
				c0.309-0.452,0.572-0.934,0.785-1.438c0.168-0.541,0.28-1.098,0.335-1.661c0.119-0.416,0.205-0.841,0.256-1.27
				c0-0.141-0.073-0.258-0.08-0.397s0.056-0.263,0.043-0.403c-1.12-12.143-3.461-24.143-6.988-35.817
				c-0.044-0.146-0.157-0.244-0.208-0.385c-0.228-0.565-0.519-1.103-0.866-1.604c-1.02-1.903-2.849-3.241-4.972-3.634
				c-0.546-0.171-1.109-0.284-1.679-0.339c-0.153-0.009-0.282-0.088-0.437-0.088H273.067
				C270.803,196.266,268.633,197.165,267.032,198.765z M281.6,213.333h139.43c1.462,5.623,2.623,11.32,3.479,17.067H281.6V213.333z"
				/>
			<path d="M238.933,264.533H77.654c-0.13,0-0.244,0.073-0.374,0.079c-0.147,0.01-0.278-0.056-0.426-0.037
				c-0.486,0.099-0.961,0.242-1.421,0.429c-0.51,0.103-1.01,0.254-1.492,0.449c-0.63,0.341-1.213,0.761-1.735,1.252
				c-0.3,0.188-0.587,0.395-0.86,0.62c-0.044,0.048-0.054,0.115-0.096,0.164c-0.547,0.67-0.987,1.421-1.307,2.224
				c-0.109,0.25-0.305,0.455-0.39,0.714c-0.367,1.107-0.501,2.278-0.394,3.439c1.12,12.143,3.461,24.143,6.987,35.817
				c0.27,0.885,0.682,1.721,1.221,2.474c0.306,0.371,0.643,0.715,1.009,1.028c0.27,0.315,0.562,0.609,0.875,0.881
				c0.422,0.27,0.867,0.502,1.33,0.694c0.336,0.203,0.685,0.383,1.046,0.537c0.863,0.288,1.767,0.435,2.677,0.436l0.002,0l0.002,0
				h154.625c2.263,0.001,4.434-0.898,6.035-2.499c1.6-1.6,2.499-3.771,2.499-6.035v-34.133c0.001-2.263-0.898-4.434-2.499-6.035
				C243.368,265.432,241.197,264.533,238.933,264.533z M230.4,298.667l-139.43,0c-0.397-1.523-0.784-3.048-1.139-4.592
				c-0.69-3.003-1.331-6.025-1.855-9.099c-0.191-1.115-0.316-2.252-0.485-3.375H230.4V298.667z"/>
			<path d="M442.623,271.796c-0.055-0.564-0.168-1.121-0.335-1.662c-0.213-0.505-0.476-0.987-0.785-1.439
				c-0.478-0.987-1.234-1.812-2.175-2.375c-0.406-0.334-0.843-0.628-1.305-0.879c-0.54-0.227-1.103-0.396-1.678-0.506
				c-0.389-0.151-0.79-0.272-1.198-0.361c-0.144-0.018-0.272,0.046-0.415,0.036c-0.135-0.007-0.249-0.078-0.385-0.078H273.067
				c-2.263-0.001-4.434,0.898-6.035,2.499c-1.6,1.6-2.499,3.771-2.499,6.035V307.2c-0.001,2.263,0.898,4.434,2.499,6.035
				c1.6,1.6,3.771,2.499,6.035,2.499h154.625l0.002,0l0.003,0c1.033-0.017,2.054-0.223,3.012-0.609
				c0.308-0.134,0.608-0.288,0.897-0.46c0.597-0.305,1.155-0.681,1.662-1.12c0.765-0.671,1.396-1.481,1.859-2.387
				c0.193-0.33,0.362-0.673,0.507-1.027c0.059-0.159,0.171-0.283,0.221-0.447c3.527-11.674,5.868-23.673,6.988-35.817
				c0.013-0.14-0.049-0.264-0.043-0.403c0.006-0.139,0.08-0.256,0.08-0.397C442.828,272.637,442.742,272.212,442.623,271.796z
				 M421.03,298.667H281.6V281.6h142.909C423.654,287.347,422.492,293.044,421.03,298.667z"/>
			<path d="M238.933,332.8H98.475c-0.14,0-0.255,0.072-0.393,0.079c-1.126,0.168-2.232,0.45-3.301,0.842
				c-0.126,0.061-0.265,0.053-0.39,0.121c-0.304,0.221-0.593,0.462-0.863,0.723c-0.494,0.331-0.951,0.715-1.364,1.143
				c-0.653,0.858-1.206,1.787-1.647,2.771c-0.179,0.567-0.297,1.151-0.352,1.743c-0.101,0.365-0.176,0.736-0.225,1.111
				c0,0.143,0.074,0.261,0.081,0.403c0.169,1.123,0.45,2.226,0.84,3.292c0.061,0.126,0.053,0.264,0.12,0.388
				c6.998,12.837,15.45,24.827,25.188,35.733c0.054,0.06,0.132,0.078,0.187,0.136c0.649,0.658,1.401,1.204,2.227,1.619
				c0.206,0.109,0.369,0.301,0.582,0.393c1.064,0.462,2.211,0.702,3.371,0.703h116.396c2.263,0.001,4.434-0.898,6.035-2.499
				c1.6-1.6,2.499-3.771,2.499-6.035v-34.134c0.001-2.263-0.898-4.434-2.499-6.035C243.368,333.698,241.197,332.799,238.933,332.8z
				 M230.4,366.933H126.503c-4.632-5.42-8.927-11.12-12.86-17.067H230.4V366.933z"/>
			<path d="M421.482,338.479c-0.441-0.984-0.994-1.913-1.647-2.771c-0.413-0.429-0.87-0.812-1.364-1.143
				c-0.27-0.261-0.559-0.503-0.863-0.723c-0.125-0.068-0.263-0.06-0.39-0.121c-1.07-0.393-2.177-0.675-3.304-0.842
				c-0.136-0.006-0.251-0.078-0.389-0.078H273.067c-2.263-0.001-4.434,0.898-6.035,2.499c-1.6,1.6-2.499,3.771-2.499,6.035v34.133
				c-0.001,2.263,0.898,4.434,2.499,6.035c1.6,1.6,3.771,2.499,6.035,2.499h116.396c1.16-0.002,2.307-0.241,3.371-0.704
				c0.206-0.089,0.364-0.275,0.564-0.38c0.833-0.417,1.591-0.968,2.245-1.631c0.055-0.058,0.133-0.076,0.187-0.136
				c9.738-10.906,18.189-22.896,25.188-35.733c0.068-0.125,0.06-0.262,0.12-0.388c0.39-1.066,0.671-2.169,0.84-3.292
				c0.007-0.141,0.081-0.26,0.081-0.403c-0.049-0.375-0.124-0.747-0.224-1.112C421.779,339.63,421.661,339.046,421.482,338.479z
				 M385.497,366.933H281.6v-17.067h116.757C394.424,355.814,390.129,361.513,385.497,366.933z"/>
		</g>
	</g>
</g>
<g>
</g>
<g>
</g>
<g>
</g>
<g>
</g>
<g>
</g>
<g>
</g>
<g>
</g>
<g>
</g>
<g>
</g>
<g>
</g>
<g>
</g>
<g>
</g>
<g>
</g>
<g>
</g>
<g>
</g>
</svg>
