<svg id="Layer_1" height="512" viewBox="0 0 128 128" width="512" xmlns="http://www.w3.org/2000/svg" data-name="Layer 1"><path d="m112.5 57.875h-3.477c.029-.318.048-.638.048-.959a10.493 10.493 0 0 0 -16.039-8.916 9.658 9.658 0 0 0 -16.713 2.665 8.429 8.429 0 0 0 -7.153 7.209h-38.12v-7.12a1.75 1.75 0 0 0 -1.746-1.754h-2.689v-22.576a9.173 9.173 0 1 1 18.347 0v2.012a11.883 11.883 0 0 0 -10.125 11.731 1.75 1.75 0 0 0 1.75 1.75h20.25a1.75 1.75 0 0 0 1.75-1.75 11.883 11.883 0 0 0 -10.125-11.731v-2.012a12.673 12.673 0 1 0 -25.347 0v22.576h-2.685a1.75 1.75 0 0 0 -1.75 1.75v7.12h-3.176a1.75 1.75 0 0 0 -1.75 1.75v7.5a1.75 1.75 0 0 0 1.75 1.75h3.346l2.846 27.658a12.452 12.452 0 0 0 11.156 11.144l-2.887 3.756a1.75 1.75 0 0 0 1.388 2.816h5.884a1.75 1.75 0 0 0 1.388-.684l4.475-5.822h41.804l4.475 5.822a1.75 1.75 0 0 0 1.388.684h5.887a1.75 1.75 0 0 0 1.388-2.816l-2.887-3.756a12.452 12.452 0 0 0 11.156-11.144l2.846-27.658h3.347a1.75 1.75 0 0 0 1.75-1.75v-7.5a1.75 1.75 0 0 0 -1.75-1.745zm-57.6-19.458h-16.383a8.377 8.377 0 0 1 16.383 0zm22.564 15.666.134.008a1.752 1.752 0 0 0 1.777-1.4 6.162 6.162 0 0 1 11.611-1.381 1.751 1.751 0 0 0 2.784.523 6.991 6.991 0 0 1 11.8 5.083 7.059 7.059 0 0 1 -.075.959h-32.77a4.9 4.9 0 0 1 4.739-3.792zm-55.288-1.583h5.37v5.37h-5.37zm14.2 58.245h-1.476l2.31-3.006h1.469zm55.258 0-2.31-3.006h1.469l2.31 3.006zm11.2-14.574a8.965 8.965 0 0 1 -8.941 8.068h-59.777a8.965 8.965 0 0 1 -8.941-8.068l-2.809-27.3h83.269zm7.925-30.8h-93.509v-4h93.5z"/><path d="m44.958 45.333v4.5a1.75 1.75 0 0 0 3.5 0v-4.5a1.75 1.75 0 0 0 -3.5 0z"/><path d="m38.329 44.622-2 4.5a1.75 1.75 0 0 0 3.2 1.422l2-4.5a1.75 1.75 0 0 0 -3.2-1.422z"/><path d="m52.777 43.733a1.751 1.751 0 0 0 -.889 2.311l2 4.5a1.75 1.75 0 1 0 3.2-1.422l-2-4.5a1.749 1.749 0 0 0 -2.311-.889z"/></svg>