<?xml version="1.0"?>
<svg xmlns="http://www.w3.org/2000/svg" viewBox="0 0 128 128" width="512" height="512"><g id="Layer_2" data-name="Layer 2"><path d="M122.917,71.473a8.4,8.4,0,0,0-6.417-8.146V18.75A18.771,18.771,0,0,0,97.75,0H51.416a18.771,18.771,0,0,0-18.75,18.75V31.188H22.749A1.75,1.75,0,0,0,21,32.938v8.25H12.833a7.759,7.759,0,0,0-7.75,7.75v4a1.749,1.749,0,0,0,1.75,1.75H72a1.749,1.749,0,0,0,1.75-1.75v-4A7.759,7.759,0,0,0,66,41.188H57.833v-8.25a1.75,1.75,0,0,0-1.75-1.75H46.166V18.75a5.256,5.256,0,0,1,5.25-5.25H97.75A5.256,5.256,0,0,1,103,18.75V63.327a8.376,8.376,0,0,0-4.12,2.4h-11.8a5.75,5.75,0,0,0,0,11.5h11.8A8.381,8.381,0,0,0,103,79.617V126.25a1.749,1.749,0,0,0,1.75,1.75h10a1.749,1.749,0,0,0,1.75-1.75V79.618A8.4,8.4,0,0,0,122.917,71.473ZM70.249,48.938v2.25H8.583v-2.25a4.255,4.255,0,0,1,4.25-4.25H66A4.255,4.255,0,0,1,70.249,48.938Zm-15.916-7.75H24.5v-6.5H54.333ZM97.75,10H51.416a8.76,8.76,0,0,0-8.75,8.75V31.188h-6.5V18.75A15.267,15.267,0,0,1,51.416,3.5H97.75A15.267,15.267,0,0,1,113,18.75V63.083h-6.5V18.75A8.76,8.76,0,0,0,97.75,10Zm-.86,63.723H87.082a2.25,2.25,0,0,1,0-4.5H96.89A8.445,8.445,0,0,0,96.89,73.723ZM113,124.5h-6.5V79.861H113Zm1.555-48.141-.045,0-9.547,0a4.888,4.888,0,0,1,.01-9.776l9.563,0,.029,0a4.886,4.886,0,0,1-.01,9.772Z"/><path d="M13.749,61.652A1.75,1.75,0,0,0,12,63.4v7.966a1.75,1.75,0,0,0,3.5,0V63.4A1.75,1.75,0,0,0,13.749,61.652Z"/><path d="M24.016,61.652a1.75,1.75,0,0,0-1.75,1.75v7.966a1.75,1.75,0,0,0,3.5,0V63.4A1.751,1.751,0,0,0,24.016,61.652Z"/><path d="M34.283,61.652a1.75,1.75,0,0,0-1.75,1.75v7.966a1.75,1.75,0,0,0,3.5,0V63.4A1.75,1.75,0,0,0,34.283,61.652Z"/><path d="M44.55,61.652A1.75,1.75,0,0,0,42.8,63.4v7.966a1.75,1.75,0,0,0,3.5,0V63.4A1.75,1.75,0,0,0,44.55,61.652Z"/><path d="M54.816,61.652a1.751,1.751,0,0,0-1.75,1.75v7.966a1.75,1.75,0,0,0,3.5,0V63.4A1.75,1.75,0,0,0,54.816,61.652Z"/><path d="M65.083,61.652a1.75,1.75,0,0,0-1.75,1.75v7.966a1.75,1.75,0,0,0,3.5,0V63.4A1.75,1.75,0,0,0,65.083,61.652Z"/><path d="M18.753,79.947A1.749,1.749,0,0,0,17,81.7v7.965a1.75,1.75,0,0,0,3.5,0V81.7A1.749,1.749,0,0,0,18.753,79.947Z"/><path d="M29.02,79.947a1.749,1.749,0,0,0-1.75,1.75v7.965a1.75,1.75,0,0,0,3.5,0V81.7A1.75,1.75,0,0,0,29.02,79.947Z"/><path d="M39.287,79.947a1.749,1.749,0,0,0-1.75,1.75v7.965a1.75,1.75,0,0,0,3.5,0V81.7A1.749,1.749,0,0,0,39.287,79.947Z"/><path d="M49.554,79.947A1.749,1.749,0,0,0,47.8,81.7v7.965a1.75,1.75,0,0,0,3.5,0V81.7A1.749,1.749,0,0,0,49.554,79.947Z"/><path d="M59.82,79.947a1.75,1.75,0,0,0-1.75,1.75v7.965a1.75,1.75,0,0,0,3.5,0V81.7A1.749,1.749,0,0,0,59.82,79.947Z"/><path d="M13.749,98.241A1.749,1.749,0,0,0,12,99.991v7.965a1.75,1.75,0,0,0,3.5,0V99.991A1.749,1.749,0,0,0,13.749,98.241Z"/><path d="M24.016,98.241a1.749,1.749,0,0,0-1.75,1.75v7.965a1.75,1.75,0,0,0,3.5,0V99.991A1.75,1.75,0,0,0,24.016,98.241Z"/><path d="M34.283,98.241a1.749,1.749,0,0,0-1.75,1.75v7.965a1.75,1.75,0,0,0,3.5,0V99.991A1.749,1.749,0,0,0,34.283,98.241Z"/><path d="M44.55,98.241a1.749,1.749,0,0,0-1.75,1.75v7.965a1.75,1.75,0,0,0,3.5,0V99.991A1.749,1.749,0,0,0,44.55,98.241Z"/><path d="M54.816,98.241a1.75,1.75,0,0,0-1.75,1.75v7.965a1.75,1.75,0,0,0,3.5,0V99.991A1.749,1.749,0,0,0,54.816,98.241Z"/><path d="M65.083,98.241a1.749,1.749,0,0,0-1.75,1.75v7.965a1.75,1.75,0,0,0,3.5,0V99.991A1.749,1.749,0,0,0,65.083,98.241Z"/><path d="M18.753,116.535a1.749,1.749,0,0,0-1.75,1.75v7.965a1.75,1.75,0,0,0,3.5,0v-7.965A1.749,1.749,0,0,0,18.753,116.535Z"/><path d="M29.02,116.535a1.749,1.749,0,0,0-1.75,1.75v7.965a1.75,1.75,0,0,0,3.5,0v-7.965A1.75,1.75,0,0,0,29.02,116.535Z"/><path d="M39.287,116.535a1.749,1.749,0,0,0-1.75,1.75v7.965a1.75,1.75,0,0,0,3.5,0v-7.965A1.749,1.749,0,0,0,39.287,116.535Z"/><path d="M49.554,116.535a1.749,1.749,0,0,0-1.75,1.75v7.965a1.75,1.75,0,0,0,3.5,0v-7.965A1.749,1.749,0,0,0,49.554,116.535Z"/><path d="M59.82,116.535a1.75,1.75,0,0,0-1.75,1.75v7.965a1.75,1.75,0,0,0,3.5,0v-7.965A1.749,1.749,0,0,0,59.82,116.535Z"/></g></svg>
