<svg height="495pt" viewBox="-31 0 495 495.99034" width="495pt" xmlns="http://www.w3.org/2000/svg"><path d="m416.496094 311.992188v-88c0-22.058594-17.945313-40-40-40h-176v-40h-16v-34.769532l114.589844-50.144531c8.152343-3.558594 13.410156-11.589844 13.410156-20.480469v-16.238281c0-14.007813-13.375-25-27.394532-21.800781l-194.007812 44.777344c-10.949219 2.519531-18.597656 12.140624-18.597656 23.382812v75.273438h-16v336h-24v16h192v-16h-24v-216h136v48c-8.824219 0-16 7.175781-16 16v16c0 8.820312 7.175781 16 16 16h80c8.824218 0 16-7.179688 16-16v-16c0-8.824219-7.175782-16-16-16zm-328-243.273438c0-3.753906 2.542968-6.953125 6.191406-7.792969l193.992188-44.777343c4.078124-.902344 7.816406 2.226562 7.816406 6.210937v16.238281c0 2.519532-1.503906 4.816406-3.816406 5.832032l-124.183594 54.328124v45.234376h-80zm248 179.273438h-152v232h-112v-320h112v40h192c13.230468 0 24 10.765624 24 24v88h-48v-48c0-8.824219-7.175782-16-16-16zm0 96v-16h80l.015625 16zm0 0"/><path d="m88.496094 175.992188h16v16h-16zm0 0"/><path d="m88.496094 207.992188h16v256h-16zm0 0"/><path d="m376.496094 366.109375-35.785156 71.554687c-2.75 5.519532-4.214844 11.710938-4.214844 18.328126 0 22.054687 17.941406 40 40 40 22.054687 0 40-17.945313 40-40.449219 0-6.167969-1.464844-12.359375-4.21875-17.886719zm0 113.882813c-13.234375 0-24-10.769532-24-24.449219 0-3.703125.871094-7.425781 2.527344-10.738281l21.472656-42.933594 21.472656 42.925781c1.65625 3.328125 2.527344 7.042969 2.527344 11.195313 0 13.230468-10.769532 24-24 24zm0 0"/><path d="m.496094 479.992188h16v16h-16zm0 0"/><path d="m240.496094 479.992188h16v16h-16zm0 0"/></svg>