<?xml version="1.0"?>
<svg xmlns="http://www.w3.org/2000/svg" viewBox="0 0 512 512" width="512" height="512"><g id="outline"><path d="M460,56H304V40a8,8,0,0,0-8-8H208a8,8,0,0,0-8,8V56H160a8,8,0,0,0-8,8V96a8,8,0,0,0,8,8h40v16a8,8,0,0,0,8,8h88a8,8,0,0,0,8-8V104H448V224H431.326c-3.208-18.894-10.23-36.067-20.041-48.79C399.744,160.243,384.843,152,369.329,152h-200a73.407,73.407,0,0,0-73.294,72H64V200a24,24,0,0,0-48,0v36a36.04,36.04,0,0,0,36,36H96.26l1.069,192.045a8,8,0,0,0,10.2,7.647l53.62-15.32L206.8,471.59a8,8,0,0,0,5.059,0l45.653-15.218,53.62,15.32a8,8,0,0,0,10.2-7.692V344h48c15.514,0,30.415-8.243,41.956-23.21,9.811-12.723,16.833-29.9,20.041-48.79H460a36.04,36.04,0,0,0,36-36V92A36.04,36.04,0,0,0,460,56ZM168,88V72h32V88Zm120,24H216V48h72ZM96,256H52a20.023,20.023,0,0,1-20-20V200a8,8,0,0,1,16,0v32a8,8,0,0,0,8,8H96ZM259.526,440.308a7.988,7.988,0,0,0-4.727.1l-45.47,15.157L163.858,440.41a7.988,7.988,0,0,0-4.727-.1l-45.861,13.1L112.794,368h8.535a8,8,0,1,0,0-16h-8.624l-.668-120h9.292a8,8,0,1,0,0-16h-8.558a57.413,57.413,0,0,1,56.558-48H333.67a79.311,79.311,0,0,0-10.689,13.479A111.231,111.231,0,0,0,308.915,216H297.329a8,8,0,1,0,0,16h8.887a146.483,146.483,0,0,0-.887,16V352h-8a8,8,0,1,0,0,16h8V453.4Zm61.8-128.513c.541.919,1.086,1.835,1.652,2.726A79.311,79.311,0,0,0,333.67,328H321.329Zm48,16.2c-12.127,0-23.792-7.838-32.849-22.069C326.709,290.576,321.329,270,321.329,248s5.38-42.576,15.151-57.931C345.537,175.838,357.2,168,369.329,168c20.9,0,39.463,23.144,45.751,56H398.967c-5.28-14.464-15.339-23.5-26.7-23.5-17.148,0-30.58,20.457-30.58,46.573s13.432,46.574,30.58,46.574c10.917,0,20.538-8.154,25.993-21.645H415.08C408.792,304.856,390.228,328,369.329,328Zm12.079-104h-18.35c2.686-4.715,6.033-7.5,9.208-7.5C375.419,216.5,378.745,219.372,381.408,224Zm-17.189,48H380.24c-2.44,3.531-5.28,5.645-7.974,5.645C369.534,277.645,366.675,275.579,364.219,272ZM480,236a20.023,20.023,0,0,1-20,20H358.382a56.867,56.867,0,0,1-.7-8.929,57.608,57.608,0,0,1,.435-7.071H456a8,8,0,0,0,8-8V96a8,8,0,0,0-8-8H304V72H460a20.023,20.023,0,0,1,20,20Z"/><path d="M169.329,352h-16a8,8,0,1,0,0,16h16a8,8,0,0,0,0-16Z"/><path d="M217.329,352h-16a8,8,0,1,0,0,16h16a8,8,0,0,0,0-16Z"/><path d="M265.329,352h-16a8,8,0,1,0,0,16h16a8,8,0,0,0,0-16Z"/><path d="M169.329,216h-16a8,8,0,0,0,0,16h16a8,8,0,0,0,0-16Z"/><path d="M217.329,216h-16a8,8,0,0,0,0,16h16a8,8,0,0,0,0-16Z"/><path d="M265.329,216h-16a8,8,0,0,0,0,16h16a8,8,0,0,0,0-16Z"/></g></svg>
