<svg id="Capa_1" enable-background="new 0 0 511.999 511.999" height="512" viewBox="0 0 511.999 511.999" width="512" xmlns="http://www.w3.org/2000/svg"><g><path d="m105.022 130.589c29.801 0 54.045-24.245 54.045-54.045 0-11.423-3.524-22.347-10.192-31.588l-12.164 8.776c4.813 6.67 7.356 14.559 7.356 22.812 0 21.529-17.516 39.045-39.045 39.045s-39.045-17.515-39.045-39.045 17.516-39.044 39.045-39.044c8.254 0 16.142 2.543 22.811 7.355l8.777-12.164c-9.24-6.667-20.163-10.191-31.588-10.191-29.801 0-54.045 24.245-54.045 54.045s24.244 54.044 54.045 54.044z"/><path d="m161.772 474.5h-49.25v-118.207h-15v118.207h-49.251v-122.841l-30-15v-93.571h-15v102.841l30 15v128.571h143.501v-45h-15z"/><path d="m169.272 145.589h-128.501c-20.678 0-37.5 16.822-37.5 37.5v45h15v-45c0-12.407 10.094-22.5 22.5-22.5h128.501c12.406 0 22.5 10.093 22.5 22.5v153.57l-30 15v77.841h15v-68.571l30-15v-162.84c0-20.678-16.822-37.5-37.5-37.5z"/><path d="m477.696 182.032c-3.054-21.457-18.444-36.443-37.425-36.443h-83.501c-18.981 0-34.371 14.986-37.425 36.443l-6.417 45.071 14.85 2.114 6.417-45.071c1.669-11.725 9.297-23.557 22.575-23.557h83.501c13.278 0 20.906 11.832 22.575 23.557l28.968 203.454-44.043 7.34v34.56h15v-21.854l45.957-7.66z"/><path d="m447.771 474.5h-41.75v-73.207h-15v73.207h-41.751v-79.56l-44.043-7.34 20.436-143.532-14.85-2.114-22.5 158.033 45.957 7.66v81.853h128.501v-45h-15z"/><path d="m438.469 217.721h15v15h-15z" transform="matrix(.99 -.141 .141 .99 -27.303 65.139)"/><path d="m434.184 187.238h14.999v15.787h-14.999z" transform="matrix(.99 -.141 .141 .99 -23.098 64.217)"/><path d="m326.77 360.137h15v15h-15z"/><path d="m398.521 130.589c29.8 0 54.044-24.245 54.044-54.045 0-11.424-3.524-22.347-10.191-31.588l-12.164 8.776c4.813 6.669 7.355 14.558 7.355 22.812 0 21.529-17.515 39.045-39.044 39.045s-39.045-17.516-39.045-39.045 17.516-39.044 39.045-39.044c8.254 0 16.142 2.543 22.811 7.355l8.777-12.164c-9.24-6.667-20.163-10.191-31.588-10.191-29.801 0-54.045 24.245-54.045 54.045s24.244 54.044 54.045 54.044z"/><path d="m248.021 0h15v511.999h-15z"/><path d="m161.772 213.34h15v15h-15z"/><path d="m33.271 311.294h15v15h-15z"/><path d="m161.772 183.34h15v15h-15z"/></g></svg>