<svg id="Capa_1" enable-background="new 0 0 512 512" height="512" viewBox="0 0 512 512" width="512" xmlns="http://www.w3.org/2000/svg"><path d="m445.873 39.958h-145.651v-29.958c0-5.523-4.478-10-10-10h-68.443c-5.523 0-10 4.477-10 10v29.958h-145.652c-5.523 0-10 4.477-10 10v42.438c0 4.281 2.694 7.922 6.476 9.349v194.621c0 5.523 4.477 10 10 10h40.019v6.042c0 10.604 1.254 21.162 3.727 31.382 1.086 4.488 5.103 7.648 9.72 7.648h2.472c12.122 39.526 42.229 71.39 80.999 85.794l-12.392 62.832c-.579 2.935.187 5.975 2.086 8.285 1.899 2.311 4.734 3.65 7.725 3.65h98.083c2.991 0 5.825-1.339 7.725-3.65 1.899-2.311 2.665-5.351 2.086-8.285l-12.393-62.832c38.771-14.404 68.878-46.268 81-85.794h2.471c4.617 0 8.634-3.161 9.72-7.648 2.473-10.218 3.727-20.777 3.727-31.383v-6.042h40.02c5.522 0 10-4.477 10-10v-194.62c3.781-1.427 6.476-5.068 6.476-9.349v-42.438c-.001-5.523-4.478-10-10.001-10zm-214.095-19.958h48.443v19.958h-48.443zm-155.651 39.958h359.746v22.438h-359.746zm261.579 226.408h-163.412c-11.521-19.629-17.587-42.551-17.587-66.643 0-64.694 44.542-117.327 99.293-117.327 54.75 0 99.293 52.633 99.293 117.327 0 24.092-6.065 47.014-17.587 66.643zm-255.103-183.97h111.461c-34.365 24.13-57.356 67.695-57.356 117.327 0 23.648 5.144 46.364 14.955 66.643h-69.06zm205.516 318.543c-4.957 1.461-7.984 6.458-6.984 11.527l11.742 59.534h-73.753l10.151-51.469h13.651c5.523 0 10-4.477 10-10s-4.477-10-10-10h-20.356c-33.873-10.432-60.846-36.244-72.937-69.092h212.736c-12.249 33.272-39.761 59.337-74.25 69.5zm91.259-108.531c0 6.396-.535 12.77-1.596 19.031h-243.565c-1.06-6.262-1.596-12.635-1.596-19.031v-6.042h246.756v6.042zm-19.04-26.042c9.811-20.279 14.955-42.994 14.955-66.643 0-49.632-22.991-93.197-57.356-117.327h111.461v183.97z"/></svg>